<svg width="23" height="24" viewBox="0 0 23 24" fill="none" xmlns="http://www.w3.org/2000/svg">
<path fill-rule="evenodd" clip-rule="evenodd" d="M11.6666 0.956818C5.41406 0.956818 0.343872 6.02588 0.343872 12.2796C0.343872 17.2824 3.58819 21.5265 8.08706 23.0239C8.65275 23.1289 8.8605 22.7783 8.8605 22.4792C8.8605 22.2092 8.85 21.3173 8.84512 20.3711C5.69512 21.0561 5.03044 19.0352 5.03044 19.0352C4.51537 17.7264 3.77325 17.3784 3.77325 17.3784C2.74575 16.6757 3.85069 16.6903 3.85069 16.6903C4.9875 16.77 5.58637 17.8571 5.58637 17.8571C6.59625 19.5878 8.23519 19.0875 8.88131 18.7984C8.98294 18.0666 9.27637 17.5669 9.60019 17.2841C7.08525 16.9982 4.44131 16.0271 4.44131 11.6886C4.44131 10.4524 4.88381 9.44232 5.60812 8.64919C5.49037 8.36419 5.10281 7.21257 5.71762 5.65294C5.71762 5.65294 6.66825 5.34863 8.832 6.81357C9.73537 6.56251 10.7042 6.43632 11.6666 6.432C12.6285 6.43632 13.5979 6.56213 14.5029 6.81319C16.6641 5.34826 17.6136 5.65257 17.6136 5.65257C18.2299 7.21201 17.8423 8.36382 17.7247 8.64882C18.4507 9.44194 18.8901 10.452 18.8901 11.6882C18.8901 16.0371 16.2412 16.9944 13.7199 17.2749C14.1262 17.6263 14.4881 18.3156 14.4881 19.3718C14.4881 20.8868 14.475 22.1061 14.475 22.479C14.475 22.7803 14.679 23.1334 15.2527 23.0222C19.749 21.5233 22.9896 17.2806 22.9896 12.2796C22.9894 6.02625 17.9197 0.956818 11.6666 0.956818Z" fill="white"/>
<path d="M4.63242 17.2136C4.60748 17.2699 4.51898 17.2868 4.43836 17.2483C4.35586 17.2116 4.30992 17.1349 4.33655 17.0785C4.36092 17.0203 4.44961 17.0044 4.53155 17.0432C4.61405 17.0801 4.66092 17.1576 4.63223 17.2138L4.63242 17.2136ZM5.09105 17.7253C5.03723 17.7754 4.93167 17.7521 4.86005 17.6728C4.7858 17.5941 4.77192 17.4885 4.82686 17.4377C4.88273 17.3878 4.98511 17.4115 5.05936 17.4902C5.13323 17.5701 5.14786 17.6747 5.09123 17.7255L5.09105 17.7253ZM5.53767 18.3773C5.4683 18.4256 5.35467 18.3805 5.28455 18.2798C5.21517 18.1789 5.21517 18.058 5.28642 18.0098C5.35636 17.9614 5.4683 18.0051 5.53955 18.1048C5.60855 18.207 5.60855 18.3281 5.53767 18.3773ZM6.14911 19.0075C6.08723 19.0759 5.95486 19.0575 5.85811 18.9643C5.7593 18.873 5.73173 18.7431 5.7938 18.6748C5.8568 18.6062 5.98973 18.6253 6.08705 18.718C6.18586 18.8091 6.21567 18.9392 6.14948 19.0073L6.14911 19.0075ZM6.99286 19.3733C6.9653 19.462 6.83817 19.5023 6.70973 19.4644C6.58167 19.4256 6.49786 19.3219 6.52411 19.2323C6.55036 19.1428 6.67842 19.101 6.80761 19.1413C6.93567 19.18 7.01948 19.2831 6.99286 19.3733ZM7.91967 19.441C7.92286 19.5343 7.81411 19.6116 7.67967 19.6135C7.54411 19.6166 7.43442 19.5409 7.43311 19.449C7.43311 19.3547 7.53961 19.2784 7.67498 19.2758C7.80942 19.2733 7.91986 19.3483 7.91986 19.4408L7.91967 19.441ZM8.7818 19.2943C8.79792 19.3853 8.70436 19.4788 8.57067 19.5038C8.43942 19.5281 8.31755 19.4715 8.30067 19.3813C8.28455 19.288 8.3798 19.1944 8.51104 19.1702C8.64492 19.1471 8.76492 19.2019 8.7818 19.2943Z" fill="white"/>
</svg>