<svg width="180" height="60" viewBox="0 0 1276 374" fill="none" xmlns="http://www.w3.org/2000/svg">
<g filter="url(#filter0_i_8_6)">
<path fill-rule="evenodd" clip-rule="evenodd" d="M225.69 346.595V374L235.362 374C296.16 369.778 303.069 332.086 301.457 304.681V235.362C301.457 214.405 322.414 203.121 344.983 204.733L344.983 172.491C317.953 170.425 307.068 163.943 303.069 141.862L301.457 67.7069C299.471 17.8979 279.117 6.26053 225.69 0L169.35 147H82V179H157.086L150.954 195H82V227H138.69L95.0232 340.934C79.716 334.311 73.971 321.557 74.1552 294.53V233.75C70.8125 205.49 60.4673 195.873 32.2414 190.224V187C64.8342 177.075 73.9327 164.968 74.1552 140.25V70.9311C76.3226 39.8391 86.8169 31.2443 119.293 29.0173V5.23906e-05H109.621C48.8225 4.22178 41.9138 43.5259 43.5259 70.9311V140.25C43.5259 161.207 22.569 172.491 0 170.879V203.121C27.0297 205.187 37.9147 211.669 41.9138 233.75L43.5259 307.905C45.508 357.621 65.7895 367.666 118.992 373.928L119.293 374L174.74 227H263V195H186.811L192.846 179H263V147H204.916L247.635 33.7454C264.688 40.0823 271.021 52.7283 270.828 81.0819V141.862C274.17 170.122 284.516 179.739 312.741 185.388V188.612C280.149 198.537 271.05 210.644 270.828 235.362V304.681C268.66 335.773 258.166 344.368 225.69 346.595Z" fill="#F8F8F2"/>
</g>
<g filter="url(#filter1_i_8_6)">
<path d="M455.5 274.375C440.833 274.375 428.25 271.042 417.75 264.375C407.25 257.625 399.208 247.583 393.625 234.25C388.042 220.917 385.25 204.333 385.25 184.5C385.25 169.75 387.25 156.792 391.25 145.625C395.25 134.458 400.75 125.125 407.75 117.625C414.75 110.125 422.75 104.5 431.75 100.75C440.833 96.9167 450.417 95 460.5 95C472.25 95 482.042 96.75 489.875 100.25C497.792 103.75 505.125 108.625 511.875 114.875L495.625 131.75C490.375 126.917 485 123.375 479.5 121.125C474.083 118.792 468 117.625 461.25 117.625C455.167 117.625 449.375 118.833 443.875 121.25C438.458 123.583 433.625 127.375 429.375 132.625C425.125 137.792 421.75 144.667 419.25 153.25C416.833 161.75 415.625 172.208 415.625 184.625C415.625 200.625 417.167 213.583 420.25 223.5C423.333 233.333 427.917 240.5 434 245C440.167 249.5 447.792 251.75 456.875 251.75C462.125 251.75 467.125 251.125 471.875 249.875C476.625 248.625 481.125 246.833 485.375 244.5V197H456.125L453 174.875H513.5V258.5C505.333 263.083 496.625 266.875 487.375 269.875C478.208 272.875 467.583 274.375 455.5 274.375ZM571.402 214C571.986 223 573.902 230.375 577.152 236.125C580.402 241.792 584.652 245.958 589.902 248.625C595.236 251.292 601.069 252.625 607.402 252.625C613.902 252.625 619.902 251.625 625.402 249.625C630.902 247.625 636.444 244.792 642.027 241.125L654.152 257.875C647.986 262.875 640.777 266.875 632.527 269.875C624.277 272.875 615.444 274.375 606.027 274.375C592.361 274.375 580.777 271.458 571.277 265.625C561.861 259.792 554.694 251.667 549.777 241.25C544.861 230.833 542.402 218.792 542.402 205.125C542.402 191.875 544.819 180.042 549.652 169.625C554.486 159.125 561.402 150.833 570.402 144.75C579.402 138.583 590.152 135.5 602.652 135.5C614.402 135.5 624.486 138.167 632.902 143.5C641.402 148.833 647.944 156.417 652.527 166.25C657.194 176 659.527 187.75 659.527 201.5C659.527 203.75 659.444 206 659.277 208.25C659.194 210.417 659.069 212.333 658.902 214H571.402ZM602.902 156.25C594.152 156.25 586.902 159.375 581.152 165.625C575.486 171.875 572.194 181.625 571.277 194.875H632.402C632.152 182.458 629.486 172.917 624.402 166.25C619.402 159.583 612.236 156.25 602.902 156.25ZM699.305 271V251H718.68V158.875H699.305V139H740.055L745.18 169.625C750.096 158.542 756.18 150.125 763.43 144.375C770.763 138.542 780.18 135.625 791.68 135.625C795.596 135.625 799.096 135.958 802.18 136.625C805.346 137.208 808.471 138 811.555 139L803.18 163C800.513 162.25 798.013 161.708 795.68 161.375C793.346 160.958 790.763 160.75 787.93 160.75C778.346 160.75 770.055 164.333 763.055 171.5C756.138 178.667 750.68 188.833 746.68 202V251H773.305V271H699.305ZM786.805 187.625V155.125L790.305 139H811.555L806.805 187.625H786.805Z" fill="#FF9580"/>
</g>
<g filter="url(#filter2_i_8_6)">
<path d="M876.25 139V231.25C876.25 239.083 877.792 244.667 880.875 248C884.042 251.333 888.792 253 895.125 253C901.125 253 906.917 251.208 912.5 247.625C918.083 244.042 922.5 239.667 925.75 234.5V139H953.75V271H929.625L927.875 254.125C922.958 260.708 916.75 265.75 909.25 269.25C901.75 272.667 894.083 274.375 886.25 274.375C873.5 274.375 863.958 270.875 857.625 263.875C851.375 256.792 848.25 247.083 848.25 234.75V139H876.25ZM1046.15 252.875C1054.9 252.875 1061.86 251.333 1067.03 248.25C1072.19 245.083 1074.78 240.75 1074.78 235.25C1074.78 231.667 1074.03 228.625 1072.53 226.125C1071.03 223.542 1068.03 221.208 1063.53 219.125C1059.03 216.958 1052.19 214.708 1043.03 212.375C1034.36 210.125 1026.74 207.458 1020.15 204.375C1013.65 201.292 1008.61 197.292 1005.03 192.375C1001.44 187.458 999.652 181.125 999.652 173.375C999.652 165.792 1001.78 159.167 1006.03 153.5C1010.28 147.833 1016.36 143.417 1024.28 140.25C1032.28 137.083 1041.65 135.5 1052.4 135.5C1063.49 135.5 1073.15 136.958 1081.4 139.875C1089.65 142.792 1096.69 146.417 1102.53 150.75L1090.78 168.375C1085.61 164.958 1079.94 162.167 1073.78 160C1067.69 157.833 1060.82 156.75 1053.15 156.75C1044.24 156.75 1037.82 158.083 1033.9 160.75C1030.07 163.417 1028.15 166.958 1028.15 171.375C1028.15 174.625 1029.11 177.375 1031.03 179.625C1033.03 181.792 1036.44 183.833 1041.28 185.75C1046.11 187.583 1052.94 189.75 1061.78 192.25C1070.36 194.583 1077.82 197.333 1084.15 200.5C1090.57 203.667 1095.53 207.875 1099.03 213.125C1102.61 218.292 1104.4 225.042 1104.4 233.375C1104.4 242.875 1101.65 250.667 1096.15 256.75C1090.74 262.75 1083.57 267.208 1074.65 270.125C1065.82 272.958 1056.32 274.375 1046.15 274.375C1033.9 274.375 1023.32 272.625 1014.4 269.125C1005.49 265.542 997.986 261.083 991.902 255.75L1006.78 238.75C1011.94 242.917 1017.86 246.333 1024.53 249C1031.19 251.583 1038.4 252.875 1046.15 252.875ZM1200.93 135.5C1213.85 135.5 1224.72 138.375 1233.55 144.125C1242.39 149.875 1249.05 157.917 1253.55 168.25C1258.14 178.583 1260.43 190.75 1260.43 204.75C1260.43 218.667 1258.1 230.875 1253.43 241.375C1248.85 251.792 1242.1 259.917 1233.18 265.75C1224.35 271.5 1213.55 274.375 1200.8 274.375C1188.05 274.375 1177.22 271.583 1168.3 266C1159.47 260.333 1152.72 252.292 1148.05 241.875C1143.47 231.458 1141.18 219.167 1141.18 205C1141.18 191.25 1143.47 179.167 1148.05 168.75C1152.72 158.333 1159.51 150.208 1168.43 144.375C1177.35 138.458 1188.18 135.5 1200.93 135.5ZM1200.93 157.25C1190.85 157.25 1183.26 161.125 1178.18 168.875C1173.1 176.542 1170.55 188.583 1170.55 205C1170.55 221.333 1173.05 233.375 1178.05 241.125C1183.14 248.875 1190.72 252.75 1200.8 252.75C1210.89 252.75 1218.43 248.875 1223.43 241.125C1228.51 233.375 1231.05 221.25 1231.05 204.75C1231.05 188.5 1228.55 176.542 1223.55 168.875C1218.55 161.125 1211.01 157.25 1200.93 157.25Z" fill="#F8F8F2"/>
</g>
<defs>
<filter id="filter0_i_8_6" x="0" y="0" width="344.983" height="378" filterUnits="userSpaceOnUse" color-interpolation-filters="sRGB">
<feFlood flood-opacity="0" result="BackgroundImageFix"/>
<feBlend mode="normal" in="SourceGraphic" in2="BackgroundImageFix" result="shape"/>
<feColorMatrix in="SourceAlpha" type="matrix" values="0 0 0 0 0 0 0 0 0 0 0 0 0 0 0 0 0 0 127 0" result="hardAlpha"/>
<feOffset dy="4"/>
<feGaussianBlur stdDeviation="2"/>
<feComposite in2="hardAlpha" operator="arithmetic" k2="-1" k3="1"/>
<feColorMatrix type="matrix" values="0 0 0 0 0 0 0 0 0 0 0 0 0 0 0 0 0 0 0.25 0"/>
<feBlend mode="normal" in2="shape" result="effect1_innerShadow_8_6"/>
</filter>
<filter id="filter1_i_8_6" x="385.25" y="95" width="426.305" height="183.375" filterUnits="userSpaceOnUse" color-interpolation-filters="sRGB">
<feFlood flood-opacity="0" result="BackgroundImageFix"/>
<feBlend mode="normal" in="SourceGraphic" in2="BackgroundImageFix" result="shape"/>
<feColorMatrix in="SourceAlpha" type="matrix" values="0 0 0 0 0 0 0 0 0 0 0 0 0 0 0 0 0 0 127 0" result="hardAlpha"/>
<feOffset dy="4"/>
<feGaussianBlur stdDeviation="2"/>
<feComposite in2="hardAlpha" operator="arithmetic" k2="-1" k3="1"/>
<feColorMatrix type="matrix" values="0 0 0 0 0 0 0 0 0 0 0 0 0 0 0 0 0 0 0.25 0"/>
<feBlend mode="normal" in2="shape" result="effect1_innerShadow_8_6"/>
</filter>
<filter id="filter2_i_8_6" x="848.25" y="135.5" width="412.18" height="142.875" filterUnits="userSpaceOnUse" color-interpolation-filters="sRGB">
<feFlood flood-opacity="0" result="BackgroundImageFix"/>
<feBlend mode="normal" in="SourceGraphic" in2="BackgroundImageFix" result="shape"/>
<feColorMatrix in="SourceAlpha" type="matrix" values="0 0 0 0 0 0 0 0 0 0 0 0 0 0 0 0 0 0 127 0" result="hardAlpha"/>
<feOffset dy="4"/>
<feGaussianBlur stdDeviation="2"/>
<feComposite in2="hardAlpha" operator="arithmetic" k2="-1" k3="1"/>
<feColorMatrix type="matrix" values="0 0 0 0 0 0 0 0 0 0 0 0 0 0 0 0 0 0 0.25 0"/>
<feBlend mode="normal" in2="shape" result="effect1_innerShadow_8_6"/>
</filter>
</defs>
</svg>