<svg width="23" height="24" viewBox="0 0 1001 937" fill="none" xmlns="http://www.w3.org/2000/svg">
<path d="M196.74 47.0611C207.73 55.0698 218.245 63.7135 228.702 72.48C230.628 74.0692 232.554 75.6583 234.539 77.2957C257.295 96.5005 278.028 118.265 298.618 139.999C300.004 141.458 301.389 142.918 302.817 144.422C311.811 153.989 320.283 163.911 328.582 174.156C330.624 176.629 332.669 179.1 334.715 181.569C393.409 252.739 448.31 331.188 490.014 414.973C490.866 416.685 491.718 418.396 492.597 420.159C498.379 432.015 498.379 432.015 498.379 436.818C499.697 436.818 501.016 436.818 502.374 436.818C502.832 435.122 503.291 433.426 503.763 431.679C507.056 422.113 511.448 413.533 516.107 404.647C517.071 402.8 518.035 400.952 519.028 399.049C529.409 379.38 540.714 360.376 552.314 341.497C553.707 339.219 555.1 336.942 556.536 334.596C582.841 292.207 611.363 251.088 642.206 212.284C643.983 210.031 645.76 207.777 647.536 205.524C657.442 192.997 667.5 180.65 677.882 168.562C680.596 165.391 683.284 162.194 685.935 158.964C696.565 146.095 707.852 133.974 719.239 121.861C720.844 120.15 722.449 118.438 724.103 116.674C777.811 59.8687 849.046 1.91606 927.964 1.91606C948.736 2.25154 962.529 7.5583 977.726 22.933C996.854 46.7136 1000.92 77.79 1000.78 107.961C1000.77 109.417 1000.77 110.873 1000.77 112.374C1000.45 188.951 992.088 266.329 984.546 342.423C984.253 345.414 984.253 345.414 983.953 348.465C978.054 407.93 968.352 460.563 929.862 506.72C928.829 507.989 927.796 509.259 926.733 510.567C880.261 563.798 809.717 575.788 744.849 578.5C742.619 578.579 740.389 578.658 738.091 578.74C741.031 579.665 741.031 579.665 744.03 580.61C782.028 592.761 820.086 607.281 849.957 635.932C851.639 637.494 853.32 639.056 855.053 640.665C876.49 661.775 889.924 687.737 892.453 718.924C893.557 756.474 878.993 790.646 857.948 820.219C856.09 822.832 856.09 822.832 854.195 825.498C816.024 876.932 762.705 923.628 700.886 936.061C668.086 939.281 635.306 930.182 609.519 907.878C603.447 902.27 597.847 896.273 592.266 890.121C590.693 888.445 589.12 886.768 587.498 885.041C551.383 844.806 530.079 791.149 512.362 739.726C511.255 736.584 510.147 733.442 509.038 730.302C502.374 711.171 502.374 711.171 502.374 703.716C501.056 703.716 499.737 703.716 498.379 703.716C497.902 706.332 497.426 708.948 496.935 711.643C494.253 724.373 489.967 736.324 485.519 748.464C484.641 750.864 483.763 753.263 482.858 755.736C457.84 822.967 424.188 896.866 358.546 927.852C325.731 941.537 292.624 938.406 260.539 923.748C236.152 912.081 214.896 896.002 194.743 877.412C193.061 875.864 191.38 874.315 189.647 872.72C149.48 835.029 113.963 791.589 108.174 732.925C107.192 702.393 116.476 675.518 135.314 652.613C138.44 649.134 141.603 645.691 144.802 642.287C147.016 639.866 147.016 639.866 149.274 637.397C179.307 606.513 222.779 589.54 262.661 578.74C261.105 578.656 259.549 578.572 257.946 578.485C227.038 576.738 196.744 574.776 166.776 566.03C164.796 565.461 164.796 565.461 162.775 564.881C114.659 550.618 72.539 518.606 46.9197 472.828C32.9308 445.854 24.6258 417.566 21.0757 387.039C20.7578 384.405 20.44 381.771 20.1125 379.057C14.5917 332.08 10.8451 284.857 6.96759 237.703C6.79426 235.612 6.62093 233.52 6.44234 231.366C3.14242 191.411 0.459543 151.522 0.100821 111.403C0.0764186 109.96 0.0520161 108.516 0.0268741 107.029C-0.419724 76.1975 4.5727 45.2671 24.5715 21.5925C71.7828 -26.2494 151.199 15.9177 196.74 47.0611Z" fill="#1085FE"/>
</svg>
