<svg width="24" height="24" viewBox="0 0 751 703" fill="none" xmlns="http://www.w3.org/2000/svg">
<path d="M750.585 604.946C750.585 658.844 703.924 702.518 646.337 702.518H104.248C46.6822 702.518 0 658.844 0 604.946V97.5719C0 43.6732 46.6822 0 104.248 0H646.337C703.924 0 750.585 43.6732 750.585 97.5719V604.946Z" fill="#0288D1"/>
<path d="M125.097 253.687H229.345V585.431H125.097V253.687ZM176.909 214.658H176.325C145.217 214.658 125.097 192.958 125.097 165.853C125.097 138.162 145.843 117.086 177.513 117.086C209.225 117.086 228.762 138.162 229.345 165.853C229.345 192.939 209.225 214.658 176.909 214.658ZM625.487 585.431H521.24V407.87C521.24 364.977 495.699 335.706 454.688 335.706C423.392 335.706 406.463 355.454 398.248 374.539C395.245 381.369 396.142 400.259 396.142 409.802V585.431H291.894V253.687H396.142V304.736C411.175 282.958 434.714 253.687 494.927 253.687C569.527 253.687 625.467 297.594 625.467 395.634L625.487 585.431Z" fill="white"/>
</svg>